<svg id="Layer_1" enable-background="new 0 0 60 52.999" height="512" viewBox="0 0 60 52.999" width="512" xmlns="http://www.w3.org/2000/svg" fill="white"><path d="m30.054 53c-.909 0-1.763-.355-2.403-1l-22.629-22.782c-3.219-3.232-4.992-7.533-4.992-12.108 0-9.434 7.626-17.108 17-17.108 4.52 0 8.776 1.773 11.985 4.994.551.555 1.479.554 2.03.001 3.208-3.222 7.465-4.995 11.985-4.995 9.374 0 17 7.675 17 17.108 0 4.495-1.713 8.729-4.828 11.942-.036.054-.077.104-.124.151l-22.62 22.795c-.64.646-1.494 1.002-2.402 1.002-.001 0-.001 0-.002 0zm-13.024-50.999c-8.271 0-15 6.777-15 15.108 0 4.043 1.566 7.842 4.41 10.697l22.63 22.783c.263.265.612.41.984.41h.001c.372 0 .722-.146.984-.41l22.489-22.664c.034-.051.073-.099.118-.144 2.827-2.853 4.384-6.644 4.384-10.673-.001-8.331-6.73-15.108-15.001-15.108-3.984 0-7.737 1.564-10.568 4.406-1.307 1.312-3.557 1.313-4.864-.001-2.829-2.84-6.583-4.404-10.567-4.404z"/><path d="m30.055 52.997c-.013 0-.026 0-.039 0-.261-.003-.511-.108-.696-.293l-1.998-1.997c-.188-.188-.293-.441-.293-.707s.105-.52.293-.707l5.293-5.293-5.293-5.293c-.391-.391-.391-1.023 0-1.414l5.293-5.293-5.293-5.293c-.391-.391-.391-1.023 0-1.414l5.293-5.293-5.293-5.293c-.391-.391-.391-1.023 0-1.414l5.293-5.293-1.582-1.582c-.205-.205-.311-.488-.291-.778.019-.261.139-.503.333-.676 3.204-3.2 7.447-4.963 11.953-4.963 9.374 0 17 7.675 17 17.108 0 4.497-1.714 8.731-4.831 11.945-.035.053-.075.103-.121.148l-22.619 22.795c-.638.647-1.491 1-2.402 1zm-.611-2.997.955.955c.241-.061.461-.186.64-.365l22.488-22.664c.034-.051.073-.099.118-.144 2.827-2.853 4.384-6.644 4.384-10.673 0-8.331-6.729-15.108-15-15.108-3.657 0-7.12 1.318-9.853 3.732l1.56 1.56c.39.391.39 1.023 0 1.414l-5.292 5.293 5.292 5.293c.391.391.391 1.023 0 1.414l-5.292 5.293 5.292 5.293c.391.391.391 1.023 0 1.414l-5.292 5.293 5.292 5.293c.391.391.391 1.023 0 1.414z"/></svg>